{
  "accessors": [
    {
      "bufferView": 2,
      "componentType": 5126,
      "count": 1524,
      "max": [
        4.589538097381592,
        2.103343963623047,
        3.2799220085144043
      ],
      "min": [
        -4.589538097381592,
        -2.09391188621521,
        -3.2278690338134766
      ],
      "type": "VEC3"
    },
    {
      "bufferView": 2,
      "byteOffset": 18288,
      "componentType": 5126,
      "count": 1524,
      "max": [
        0.9999734163284302,
        0.9994421005249023,
        1.0
      ],
      "min": [
        -0.9999734163284302,
        -0.9996748566627502,
        -0.9999997615814209
      ],
      "type": "VEC3"
    },
    {
      "bufferView": 1,
      "componentType": 5126,
      "count": 1524,
      "max": [
        0.0,
        0.0
      ],
      "min": [
        0.0,
        0.0
      ],
      "type": "VEC2"
    },
    {
      "bufferView": 0,
      "componentType": 5125,
      "count": 9048,
      "type": "SCALAR"
    },
    {
      "bufferView": 2,
      "byteOffset": 36576,
      "componentType": 5126,
      "count": 370,
      "max": [
        2.24389910697937,
        -1.5203200578689575,
        0.33871498703956604
      ],
      "min": [
        -2.24389910697937,
        -2.590686082839966,
        -1.3162260055541992
      ],
      "type": "VEC3"
    },
    {
      "bufferView": 2,
      "byteOffset": 41016,
      "componentType": 5126,
      "count": 370,
      "max": [
        0.9983574748039246,
        0.9957723617553711,
        0.9986788034439087
      ],
      "min": [
        -0.9983574748039246,
        -0.9984443783760071,
        -0.9988790154457092
      ],
      "type": "VEC3"
    },
    {
      "bufferView": 0,
      "byteOffset": 36192,
      "componentType": 5125,
      "count": 2112,
      "type": "SCALAR"
    }
  ],
  "asset": {
    "extras": {
      "author": "Ragat Vdoo Kaf (https://sketchfab.com/mae_bul_01)",
      "license": "CC-BY-4.0 (http://creativecommons.org/licenses/by/4.0/)",
      "source": "https://sketchfab.com/3d-models/discord-3d-logo-59bf15211e7b416f925c696d6db06cd2",
      "title": "Discord 3d Logo"
    },
    "generator": "Sketchfab-12.67.0",
    "version": "2.0"
  },
  "bufferViews": [
    {
      "buffer": 0,
      "byteLength": 44640,
      "name": "floatBufferViews",
      "target": 34963
    },
    {
      "buffer": 0,
      "byteLength": 12192,
      "byteOffset": 44640,
      "byteStride": 8,
      "name": "floatBufferViews",
      "target": 34962
    },
    {
      "buffer": 0,
      "byteLength": 45456,
      "byteOffset": 56832,
      "byteStride": 12,
      "name": "floatBufferViews",
      "target": 34962
    }
  ],
  "buffers": [
    {
      "byteLength": 102288,
      "uri": "scene.bin"
    }
  ],
  "images": [
    {
      "uri": "textures/Material.001_metallicRoughness.png"
    }
  ],
  "materials": [
    {
      "name": "Material.001",
      "occlusionTexture": {
        "index": 0,
        "strength": 0.6219512195121951
      },
      "pbrMetallicRoughness": {
        "baseColorFactor": [
          0.64,
          0.64,
          0.64,
          1.0
        ],
        "metallicFactor": 0.0,
        "metallicRoughnessTexture": {
          "index": 0
        },
        "roughnessFactor": 0.29268292679999997
      }
    },
    {
      "doubleSided": true,
      "name": "Material.002",
      "pbrMetallicRoughness": {
        "baseColorFactor": [
          0.108507,
          0.181573,
          0.441609,
          1.0
        ],
        "metallicFactor": 0.0,
        "roughnessFactor": 0.6036585366
      }
    }
  ],
  "meshes": [
    {
      "name": "Object_0",
      "primitives": [
        {
          "attributes": {
            "NORMAL": 1,
            "POSITION": 0,
            "TEXCOORD_0": 2
          },
          "indices": 3,
          "material": 0,
          "mode": 4
        }
      ]
    },
    {
      "name": "Object_1",
      "primitives": [
        {
          "attributes": {
            "NORMAL": 5,
            "POSITION": 4
          },
          "indices": 6,
          "material": 1,
          "mode": 4
        }
      ]
    }
  ],
  "nodes": [
    {
      "children": [
        1
      ],
      "matrix": [
        1.0,
        0.0,
        0.0,
        0.0,
        0.0,
        2.220446049250313e-16,
        -1.0,
        0.0,
        0.0,
        1.0,
        2.220446049250313e-16,
        0.0,
        0.0,
        0.0,
        0.0,
        1.0
      ],
      "name": "Sketchfab_model"
    },
    {
      "children": [
        2,
        3
      ],
      "name": "disk1.obj.cleaner.materialmerger.gles"
    },
    {
      "mesh": 0,
      "name": "Object_2"
    },
    {
      "mesh": 1,
      "name": "Object_3"
    }
  ],
  "samplers": [
    {
      "magFilter": 9729,
      "minFilter": 9987,
      "wrapS": 10497,
      "wrapT": 10497
    }
  ],
  "scene": 0,
  "scenes": [
    {
      "name": "Sketchfab_Scene",
      "nodes": [
        0
      ]
    }
  ],
  "textures": [
    {
      "sampler": 0,
      "source": 0
    }
  ]
}
